<?xml version="1.0" encoding="utf-8"?><svg xmlns="http://www.w3.org/2000/svg" xmlns:xlink="http://www.w3.org/1999/xlink"><symbol viewBox="0 0 8 6" id="arrowDown" xmlns="http://www.w3.org/2000/svg"><path d="M4 5.794L7.464.324H.536L4 5.795z"/></symbol><symbol viewBox="0 0 16 263" id="scroll" xmlns="http://www.w3.org/2000/svg"><path d="M7.29 262.704a1 1 0 001.414.006l6.389-6.34a1 1 0 10-1.41-1.419l-5.678 5.635-5.635-5.679a1 1 0 00-1.42 1.409l6.34 6.388zM8 .996l-1 261 2 .008 1-261-2-.008z"/></symbol><symbol viewBox="0 0 42 64" id="vector" xmlns="http://www.w3.org/2000/svg"><path d="M.643 30.294L37.882.559c.877-.7 2.283-.7 3.16 0 .876.7.876 1.823 0 2.523L5.392 31.549l35.65 28.467c.876.7.876 1.823 0 2.523-.43.343-1.01.528-1.572.528s-1.141-.172-1.572-.528L.66 32.804c-.877-.687-.877-1.823-.017-2.51z"/></symbol></svg>